# xmcd
#
# Track frame offsets: 
#        150
#        10715
#        21022
#        32072
#        43245
#        55422
#        69372
#        80535
#        96215
#        114532
#        124882
#        137630
#        149550
#        161385
#        180472
#        193342
#        207255
#        219375
#        233047
#        245625
#        259132
#        268655
#        282042
#        293370
#        310287
#
# Disc length: 4291 seconds
#
# Revision: 5
# Processed by: cddbd v1.5.2PL0 Copyright (c) Steve Scherf et al.
# Submitted via: ExactAudioCopy v1.0b1
#
DISCID=6f10c119
DTITLE=Various Artist - Chess Blues - Disc 4 (1960-1967)
DYEAR=1992
DGENRE=Blues
TTITLE0=Buddy Guy - First Time I Met The Blues (mono)
TTITLE1=Detroit Junior - Too Poor (mono)
TTITLE2=Lowell Fulson - Blue Shadows (mono)
TTITLE3=Lloyd Glenn - The Shakedown (mono)
TTITLE4=Elmore James - The Sun Is Shining (alt) (mono)
TTITLE5=Albert King - Calling On My Darling (mono)
TTITLE6=Howlin Wolf - The Red Rooster (mono)
TTITLE7=Sonny Boy Williamson II - Nine Below Zero (mono)
TTITLE8=Howlin' Wolf - Goin' Down Slow (stereo)
TTITLE9=Little Milton - Satisfied (mono)
TTITLE10=Etta James - Something's Got A Hold On Me (mono)
TTITLE11=The Big Three Trio - Wrinkles (mono)
TTITLE12=Sonny Boy Williamson II - Bring It On Home (mono)
TTITLE13=Walter Horton - Good Moanin' Blues (mono)
TTITLE14=Howlin' Wolf - Killing Floor (stereo)
TTITLE15=Koko Taylor - What Kind Of Man Is That (mono)
TTITLE16=Little Milton - We're Gonna Make It (stereo)
TTITLE17=Koko Taylor - Wang Dang Doodle (stereo)
TTITLE18=Little Joe Blue - Dirty Work Goin' On (mono)
TTITLE19=John Lee Hooker - One Bourbon, One Scotch, One Beer (stereo)
TTITLE20=Eddie Burns - Jinglin' Baby (stereo)
TTITLE21=Muddy Waters - That's Why I Don't Mind (stereo)
TTITLE22=Buddy Guy - Keep It To Myself (stereo)
TTITLE23=Hound Dog Taylor and The Houserockers - Sitting Here Alone (mon
TTITLE23=o)
TTITLE24=Etta James - I'd Rather Go Blind (mono)
EXTD=YEAR: 0 ID3G:   0
EXTT0=
EXTT1=
EXTT2=
EXTT3=
EXTT4=
EXTT5=
EXTT6=
EXTT7=
EXTT8=
EXTT9=
EXTT10=
EXTT11=
EXTT12=
EXTT13=
EXTT14=
EXTT15=
EXTT16=
EXTT17=
EXTT18=
EXTT19=
EXTT20=
EXTT21=
EXTT22=
EXTT23=
EXTT24=
PLAYORDER=
